HIERARCHY
ROOT hip
{
	OFFSET 0.000000 0.000000 0.000000 
	CHANNELS 6 Xposition Yposition Zposition Xrotation Zrotation Yrotation
	JOINT abdomen
	{
		OFFSET 0.000000 3.402643 0.000000 
		CHANNELS 3 Xrotation Zrotation Yrotation
		JOINT chest
		{
			OFFSET 0.000000 8.438565 -0.680529 
			CHANNELS 3 Xrotation Zrotation Yrotation
			JOINT neck
			{
				OFFSET 0.000000 10.207942 -0.272212 
				CHANNELS 3 Xrotation Zrotation Yrotation
				JOINT head
				{
					OFFSET 0.000000 3.130431 0.000000 
					CHANNELS 3 Xrotation Zrotation Yrotation
					End Site
					{
						OFFSET 0.000000 3.130435 0.000000 
					}
				}
			}
			JOINT lCollar
			{
				OFFSET 3.470700 6.669187 -0.816635 
				CHANNELS 3 Yrotation Zrotation Xrotation
				JOINT lShldr
				{
					OFFSET 3.198488 0.000000 0.000000 
					CHANNELS 3 Zrotation Yrotation Xrotation
					JOINT lForeArm
					{
						OFFSET 10.139888 0.000000 0.000000 
						CHANNELS 3 Yrotation Zrotation Xrotation
						JOINT lHand
						{
							OFFSET 8.370511 0.000000 0.000000 
							CHANNELS 3 Zrotation Yrotation Xrotation
							End Site
							{
								OFFSET 4.083176 0.000000 0.000000 
							}
						}
					}
				}
			}
			JOINT rCollar
			{
				OFFSET -3.470700 6.669187 -0.816635 
				CHANNELS 3 Yrotation Zrotation Xrotation
				JOINT rShldr
				{
					OFFSET -3.198488 0.000000 0.000000 
					CHANNELS 3 Zrotation Yrotation Xrotation
					JOINT rForeArm
					{
						OFFSET -10.139888 0.000000 0.000000 
						CHANNELS 3 Yrotation Zrotation Xrotation
						JOINT rHand
						{
							OFFSET -8.370511 0.000000 0.000000 
							CHANNELS 3 Zrotation Yrotation Xrotation
							End Site
							{
								OFFSET -4.083176 0.000000 0.000000 
							}
						}
					}
				}
			}
		}
	}
	JOINT lThigh
	{
		OFFSET 5.308129 -1.633274 1.361059 
		CHANNELS 3 Xrotation Zrotation Yrotation
		JOINT lShin
		{
			OFFSET -2.041588 -20.007561 0.000000 
			CHANNELS 3 Xrotation Zrotation Yrotation
			JOINT lFoot
			{
				OFFSET 0.000000 -19.190928 -1.224953 
				CHANNELS 3 Xrotation Yrotation Zrotation
				End Site
				{
					OFFSET 0.000000 -2.449906 4.627600 
				}
			}
		}
	}
	JOINT rThigh
	{
		OFFSET -5.308129 -1.633274 1.361059 
		CHANNELS 3 Xrotation Zrotation Yrotation
		JOINT rShin
		{
			OFFSET 2.041588 -20.007561 0.000000 
			CHANNELS 3 Xrotation Zrotation Yrotation
			JOINT rFoot
			{
				OFFSET 0.000000 -19.190928 -1.224953 
				CHANNELS 3 Xrotation Yrotation Zrotation
				End Site
				{
					OFFSET 0.000000 -2.449906 4.627600 
				}
			}
		}
	}
}
MOTION
Frames: 13
Frame Time: 0.016667
63.245125 24.481653 44.400940 14.566801 -6.167416 7.533713 31.467678 6.496355 -4.196134 0.000000 0.000000 0.000000 -62.216854 3.500837 -5.263752 0.000000 0.000000 0.000000 0.000000 0.000000 0.000000 -60.857777 -78.449203 46.367645 -1.545810 8.888510 -2.647921 33.555412 -7.039702 2.999943 0.000000 0.000000 0.000000 54.884800 76.522888 50.457310 0.177982 -6.189042 -1.610108 -32.774311 -6.533663 9.204056 -97.272339 4.248715 -17.445179 154.967880 -9.687042 -18.674622 -8.499261 14.950280 10.602436 -125.571892 -1.154243 13.821370 123.795105 5.502740 12.523039 -12.244762 -0.326573 2.980834 
63.474651 23.725885 45.089531 12.804269 -5.897393 7.450923 32.516933 6.137196 -4.036568 0.000000 0.000000 0.000000 -60.628036 2.888996 -5.084451 0.000000 0.000000 0.000000 0.000000 0.000000 0.000000 -69.512245 -76.305420 53.074295 -3.704947 11.967406 -1.116199 39.557556 -7.530733 3.072090 0.000000 0.000000 0.000000 60.635899 75.596870 55.382782 1.412012 -8.710591 0.425311 -37.677963 -6.361865 9.876667 -95.830894 5.470881 -18.180622 158.202332 -8.627835 -20.205976 -7.364849 14.290851 10.585780 -126.591202 -1.132646 14.262129 127.779068 4.924219 13.893497 -13.486688 -0.256709 1.943884 
63.704903 22.972517 45.776600 11.049466 -5.636944 7.369306 33.573269 5.787594 -3.877120 0.000000 0.000000 0.000000 -59.053589 2.276726 -4.925739 0.000000 0.000000 0.000000 0.000000 0.000000 0.000000 -76.059494 -73.994972 57.653969 -5.975849 14.973055 0.560829 45.534149 -8.034528 3.090791 0.000000 0.000000 0.000000 65.680504 74.570457 59.603680 2.749673 -11.170535 2.537206 -42.573402 -6.114919 10.530361 -94.408638 6.710325 -18.919336 161.389954 -7.489358 -21.709429 -6.245247 13.616362 10.567216 -127.594398 -1.104721 14.714656 131.737732 4.264504 15.226206 -14.733013 -0.193242 0.907113 
64.007202 22.463076 46.308434 9.638465 -5.365647 7.376229 35.076637 5.713521 -3.248430 0.000000 0.000000 0.000000 -58.008564 1.665033 -4.386599 0.000000 0.000000 0.000000 0.000000 0.000000 0.000000 -82.529282 -72.428658 62.220047 -7.892872 17.261770 2.841169 50.136009 -8.782213 2.227456 0.000000 0.000000 0.000000 67.721588 73.678764 61.693485 3.778928 -12.536355 4.186755 -46.332718 -4.543697 11.276034 -93.086227 6.955823 -20.080164 163.253372 -6.932229 -23.287512 -4.622621 12.535777 10.145910 -127.356583 -1.223049 14.331429 134.343460 3.200342 15.467844 -15.709068 -0.366329 -0.078681 
64.304588 21.954735 46.834263 8.255565 -5.104043 7.382405 36.569008 5.628913 -2.619745 0.000000 0.000000 0.000000 -56.985023 1.052298 -3.858026 0.000000 0.000000 0.000000 0.000000 0.000000 0.000000 -88.110527 -70.766159 65.924469 -9.905789 19.434946 5.217534 54.712177 -9.467785 1.313092 0.000000 0.000000 0.000000 69.420753 72.806595 63.474056 4.848775 -13.854725 5.885351 -50.044647 -2.932068 11.915081 -91.790054 7.228352 -21.230244 165.079651 -6.295209 -24.821796 -3.038855 11.473648 9.763763 -127.152237 -1.330544 13.975590 136.916321 2.171355 15.674451 -16.657314 -0.513033 -1.048518 
64.103043 21.562855 46.750290 9.316282 -5.366270 8.092333 38.141659 6.158935 -1.846292 0.000000 0.000000 0.000000 -58.744606 1.121786 -2.715279 0.000000 0.000000 0.000000 0.000000 0.000000 0.000000 -96.783539 -73.679352 75.083054 -9.311939 18.142986 6.442244 56.065498 -10.054665 0.756590 0.000000 0.000000 0.000000 57.023205 74.674873 54.089397 4.402554 -12.941902 7.357861 -51.840282 -2.251759 12.917292 -94.355431 6.262606 -21.528162 165.303268 -6.503705 -25.272736 -2.495851 11.863929 10.225904 -128.321838 -1.849274 14.009235 136.504272 2.659808 14.662000 -16.224609 0.445236 -1.322290 
63.897980 21.173512 46.660313 10.407408 -5.646183 8.792726 39.710472 6.678551 -1.061159 0.000000 0.000000 0.000000 -60.512280 1.230005 -1.572532 0.000000 0.000000 0.000000 0.000000 0.000000 0.000000 71.140434 -103.930176 -92.326790 -8.667772 16.846432 7.645715 57.402420 -10.626080 0.203646 0.000000 0.000000 0.000000 42.175316 75.886398 42.281506 3.933041 -12.018979 8.812611 -53.607662 -1.544981 13.890542 -96.954041 5.296070 -21.779415 165.509521 -6.697736 -25.717894 -1.982567 12.254526 10.688704 -129.523392 -2.375791 14.079163 136.037567 3.160610 13.663405 -15.777263 1.397825 -1.606300 
63.338158 21.039150 45.966125 14.985916 -6.671799 9.694689 40.066746 7.558272 -0.531753 0.000000 0.000000 0.000000 -63.777828 2.158203 0.039403 0.000000 0.000000 0.000000 0.000000 0.000000 0.000000 44.648918 -99.513649 -62.009129 -5.625251 13.266695 6.134537 57.165314 -10.364179 -0.101936 0.000000 0.000000 0.000000 10.424473 77.097084 18.058039 1.906244 -9.476647 7.179279 -53.951134 -1.781862 14.471468 -103.320526 3.899817 -20.985207 163.849197 -7.242320 -25.144274 -3.845212 13.124320 11.698538 -132.758240 -3.820083 15.619988 132.766861 5.484525 13.338212 -13.664775 2.572987 -1.412083 
62.779327 20.911238 45.269619 19.581059 -7.759934 10.506270 40.408707 8.437500 -0.009660 0.000000 0.000000 0.000000 -67.001862 3.182379 1.585012 0.000000 0.000000 0.000000 0.000000 0.000000 0.000000 2.021627 -99.393990 -15.526343 -2.725863 9.612451 4.810936 56.928123 -10.105296 -0.411538 0.000000 0.000000 0.000000 -20.000872 75.189812 -4.853283 -0.039737 -6.872719 5.635976 -54.276474 -2.035908 15.029414 -109.700035 2.629594 -20.032360 162.163345 -7.763131 -24.586899 -5.773898 13.958158 12.726543 -136.043365 -5.185638 17.267466 129.455521 7.798939 12.902249 -11.571835 3.719795 -1.247601 
62.320263 21.431879 44.340309 26.946039 -8.949872 9.866308 39.791527 8.515615 -0.088368 0.000000 0.000000 0.000000 -69.300468 5.092444 2.598472 0.000000 0.000000 0.000000 0.000000 0.000000 0.000000 -50.223198 -101.133324 44.502953 0.493802 6.397210 1.090241 56.788486 -9.151185 -1.039566 0.000000 0.000000 0.000000 -49.886765 71.039749 -28.113333 -2.378353 -4.197953 2.905619 -54.087360 -3.621918 14.231930 -116.613228 2.121804 -18.748363 158.076202 -8.715978 -22.252857 -8.864575 12.905698 12.388532 -139.759308 -7.814614 19.644382 123.638977 12.281756 13.522493 -9.356854 5.394090 -0.234080 
61.863735 21.960672 43.411274 34.343674 -10.031707 9.075089 39.180977 8.583939 -0.186384 0.000000 0.000000 0.000000 -71.558846 7.037519 3.533255 0.000000 0.000000 0.000000 0.000000 0.000000 0.000000 -71.138504 -108.628708 73.245010 3.460193 3.021193 -2.411736 56.648224 -8.203998 -1.658861 0.000000 0.000000 0.000000 -68.365349 64.581322 -39.913677 -4.572556 -1.440170 0.301919 -53.867226 -5.203035 13.423499 -123.507622 1.780457 -17.445562 153.915955 -9.510502 -19.888432 -11.931323 11.864335 11.956930 -143.594757 -10.276582 22.188150 117.748337 16.792269 13.677452 -7.163203 7.083267 0.716555 
61.662174 23.310009 42.509853 41.282440 -10.032218 7.506867 38.466953 7.538304 -0.816353 0.000000 0.000000 0.000000 -72.796356 8.088630 3.719163 0.000000 0.000000 0.000000 0.000000 0.000000 0.000000 95.533287 -65.821266 -87.983818 4.403147 2.568945 -4.279940 56.762863 -7.247941 -2.296066 0.000000 0.000000 0.000000 -77.340347 59.169342 -47.664272 -5.452729 -0.176469 -0.913813 -53.669159 -6.296247 12.724214 -127.373535 1.204455 -16.220091 148.046204 -10.364990 -16.789219 -14.079397 10.591157 10.052711 -146.030243 -12.647851 22.167257 111.038597 19.430115 11.646010 -5.160025 9.299559 3.267889 
61.461807 24.660080 41.607475 48.205177 -9.840031 5.965682 37.768764 6.482387 -1.424601 0.000000 0.000000 0.000000 -74.020966 9.129694 3.888366 0.000000 0.000000 0.000000 0.000000 0.000000 0.000000 88.640938 -59.208839 -75.560738 5.330583 2.090547 -6.103052 56.856762 -6.290866 -2.928570 0.000000 0.000000 0.000000 -83.766350 53.346767 -52.853775 -6.301644 1.102436 -2.106627 -53.457127 -7.383381 12.032396 -131.216782 0.704089 -14.970607 142.093231 -10.930941 -13.612987 -16.270950 9.359449 8.073451 -148.463379 -15.000378 22.238630 104.105186 21.832960 9.262326 -3.235564 11.586858 5.745172 
